<?xml version="1.0" standalone="no"?>
<!DOCTYPE svg PUBLIC "-//W3C//DTD SVG 20010904//EN" "http://www.w3.org/TR/2001/REC-SVG-20010904/DTD/svg10.dtd">
<svg version="1.0" xmlns="http://www.w3.org/2000/svg"
  width="600.000000pt" height="600.000000pt" viewBox="0 0 600.000000 600.000000"
  preserveAspectRatio="xMidYMid meet">

  <g transform="translate(0.000000,600.000000) scale(0.100000,-0.100000)"
    fill="#ea580c" stroke="none">
    <path
      d="M2840 5729 c-376 -25 -765 -137 -1097 -315 -643 -344 -1140 -956
-1339 -1646 -76 -264 -107 -484 -107 -763 0 -227 11 -346 54 -558 28 -140 112
-417 158 -518 l21 -47 148 -41 c82 -22 153 -41 158 -41 10 0 95 289 94 320 0
8 -14 50 -31 93 -41 106 -93 316 -115 462 -24 162 -24 465 0 629 134 923 800
1666 1694 1892 126 32 271 54 461 71 l85 8 -117 105 c-64 58 -117 109 -117
114 0 4 47 59 105 121 58 62 105 115 105 119 0 3 -10 5 -22 5 -13 -1 -75 -5
-138 -10z" />
    <path
      d="M3211 5614 l-116 -113 124 -124 123 -125 59 -6 c246 -28 633 -176
879 -336 439 -286 767 -713 928 -1210 77 -238 107 -432 106 -700 -1 -372 -73
-679 -235 -1004 -27 -54 -48 -100 -46 -102 1 -2 67 17 146 42 79 25 144 44
145 42 2 -2 25 -72 52 -157 l49 -155 62 125 c196 393 286 778 286 1219 0 720
-268 1382 -766 1897 -407 420 -923 693 -1497 792 -199 34 -166 43 -299 -85z" />
    <path
      d="M3174 3460 c-134 -28 -213 -110 -214 -222 0 -118 63 -178 264 -247
63 -22 129 -47 146 -56 71 -37 93 -136 43 -196 -37 -43 -80 -59 -160 -59 -113
1 -197 53 -209 132 l-7 38 -54 0 -55 0 7 -37 c28 -152 194 -243 388 -213 110
17 178 62 211 142 58 139 -40 261 -260 324 -84 23 -167 70 -187 103 -22 37
-22 105 0 142 26 43 87 69 162 69 103 0 174 -49 187 -131 l7 -39 54 0 54 0 -7
38 c-22 123 -124 204 -274 216 -30 3 -73 1 -96 -4z" />
    <path
      d="M1000 3133 c1 -248 4 -337 14 -366 23 -63 62 -104 132 -138 58 -29
76 -33 148 -33 137 0 237 51 289 148 21 40 22 52 25 379 l3 337 -50 0 -49 0
-4 -322 c-3 -323 -3 -323 -28 -368 -59 -107 -249 -125 -333 -32 -42 46 -46 83
-47 410 l0 312 -50 0 -50 0 0 -327z" />
    <path
      d="M1790 3030 l0 -430 55 0 55 0 0 332 c0 213 3 329 10 322 5 -5 103
-153 218 -329 l209 -320 57 -3 56 -3 0 431 0 430 -55 0 -55 0 0 -332 c0 -218
-3 -329 -10 -322 -5 5 -103 154 -218 329 l-208 320 -57 3 -57 3 0 -431z" />
    <path d="M2660 3030 l0 -430 55 0 55 0 0 430 0 430 -55 0 -55 0 0 -430z" />
    <path
      d="M3614 3443 c4 -9 70 -131 146 -270 l140 -254 0 -159 0 -160 55 0 55
0 0 165 0 164 145 263 144 263 -56 3 c-31 2 -59 -1 -63 -5 -4 -4 -56 -101
-115 -215 -60 -114 -112 -205 -116 -202 -4 2 -56 99 -116 214 l-107 210 -59 0
c-51 0 -58 -2 -53 -17z" />
    <path
      d="M4420 3030 l0 -430 55 0 55 0 0 332 c0 213 3 329 10 322 5 -5 103
-153 218 -329 l209 -320 57 -3 56 -3 0 431 0 430 -55 0 -55 0 0 -332 c0 -218
-3 -329 -10 -322 -5 5 -103 154 -218 329 l-208 320 -57 3 -57 3 0 -431z" />
    <path
      d="M1051 1803 c-5 -21 -19 -86 -32 -145 -12 -59 -25 -112 -29 -117 -4
-8 -56 0 -160 23 -85 19 -156 33 -158 32 -5 -6 154 -238 224 -326 87 -109 295
-316 404 -404 335 -268 749 -466 1149 -550 1036 -218 2083 160 2736 987 l62
79 -41 157 -40 158 -156 -39 c-148 -37 -156 -40 -185 -76 -247 -305 -554 -540
-891 -683 -787 -334 -1670 -212 -2334 322 -176 142 -380 372 -495 558 -21 34
-39 61 -41 61 -2 0 -8 -17 -13 -37z" />
  </g>
</svg>