<?xml version="1.0" standalone="no"?>
<!DOCTYPE svg PUBLIC "-//W3C//DTD SVG 20010904//EN" "http://www.w3.org/TR/2001/REC-SVG-20010904/DTD/svg10.dtd">
<svg version="1.0" xmlns="http://www.w3.org/2000/svg"
  width="600.000000pt" height="600.000000pt" viewBox="0 0 600.000000 600.000000"
  preserveAspectRatio="xMidYMid meet">

  <g transform="translate(0.000000,600.000000) scale(0.100000,-0.100000)"
    fill="#232323" stroke="none">
    <!-- left arrow -->
    <path fill="#e65100"
      d="M2840 5729 c-565 -38 -1128 -265 -1560 -627 -119 -100 -315 -301
-401 -412 -383 -492 -581 -1066 -582 -1685 0 -227 11 -346 54 -558 28 -140
112 -417 158 -518 l21 -47 148 -41 c82 -22 153 -41 158 -41 10 0 95 289 94
320 0 8 -14 50 -31 93 -41 106 -93 316 -115 462 -24 162 -24 465 0 629 89 611
408 1148 901 1515 120 90 205 142 344 211 277 138 525 203 910 237 l84 8 -114
104 c-63 57 -116 107 -117 112 -2 5 44 60 102 123 58 62 106 116 106 120 0 3
-10 5 -22 5 -13 -1 -75 -5 -138 -10z" />
    <!-- right arrow -->
    <path fill="#616262"
      d="M3210 5615 l-114 -115 39 -42 c141 -152 201 -208 223 -208 36 0 216
-38 317 -67 745 -213 1346 -816 1555 -1561 154 -547 96 -1144 -159 -1639 -57
-110 -69 -106 124 -44 66 22 123 36 127 33 3 -4 27 -74 53 -156 55 -173 44
-174 135 17 131 278 216 574 251 877 18 153 15 489 -5 638 -59 438 -203 825
-441 1180 -202 303 -506 598 -820 797 -291 183 -686 332 -1010 379 -60 9 -122
18 -136 21 -22 3 -43 -14 -139 -110z" />
    <!-- S -->
    <path
      d="M3155 3461 c-123 -32 -197 -117 -198 -226 0 -118 72 -185 273 -250
166 -54 220 -101 207 -182 -13 -76 -62 -112 -163 -121 -116 -9 -214 47 -230
133 -6 35 -6 35 -60 35 -52 0 -54 -1 -54 -27 1 -75 84 -172 176 -206 113 -42
272 -29 359 31 81 56 109 173 62 263 -37 70 -91 101 -314 179 -34 12 -79 36
-99 54 -31 27 -37 39 -41 81 -5 64 21 109 80 135 115 53 251 1 278 -106 l11
-44 55 0 56 0 -7 43 c-14 84 -75 154 -171 196 -36 16 -177 24 -220 12z" />
    <!--  U -->
    <path
      d="M992 3128 c4 -369 4 -371 73 -447 118 -131 401 -115 499 27 49 71 50
79 54 425 l4 327 -61 0 -61 0 0 -312 c0 -182 -4 -328 -10 -350 -12 -43 -63
-91 -116 -108 -51 -17 -145 -7 -189 20 -20 12 -44 39 -55 61 -19 36 -20 60
-20 364 l0 325 -61 0 -60 0 3 -332z" />
    <!-- n -->
    <path
      d="M1790 3030 l0 -430 55 0 55 0 0 325 c0 179 3 325 8 324 4 0 102 -146
217 -324 l210 -324 58 -1 57 0 0 430 0 430 -55 0 -55 0 -2 -330 -3 -331 -215
330 -215 331 -57 0 -58 0 0 -430z" />
    <!-- i -->
    <path d="M2660 3030 l0 -430 55 0 55 0 0 430 0 430 -55 0 -55 0 0 -430z" />
    <!-- y -->
    <path
      d="M3628 3408 c16 -29 84 -153 151 -274 l121 -221 0 -157 0 -156 55 0
55 0 0 161 0 162 145 263 c80 145 145 266 145 269 0 3 -28 5 -62 5 l-63 0
-111 -216 -111 -216 -112 216 -112 216 -66 0 -65 0 30 -52z" />
    <!-- N  -->
    <path
      d="M4420 3030 l0 -430 55 0 55 0 0 325 c0 179 3 325 8 324 4 0 102 -146
217 -324 l210 -324 58 -1 57 0 0 430 0 430 -55 0 -55 0 -2 -330 -3 -331 -215
330 -215 331 -57 0 -58 0 0 -430z" />

    <!-- bottom arrow -->
    <path
      d="M1056 1839 c-3 -8 -19 -79 -36 -158 -17 -80 -32 -146 -33 -147 -1 0
-71 14 -155 33 -85 19 -156 32 -159 29 -3 -3 24 -49 59 -103 407 -617 1049
-1050 1761 -1188 67 -13 167 -29 222 -36 127 -17 499 -17 630 0 738 92 1381
453 1844 1035 37 47 60 85 57 95 -3 9 -21 79 -41 156 -20 77 -38 141 -40 143
-1 2 -74 -16 -161 -39 l-159 -42 -50 -64 c-75 -97 -287 -300 -400 -384 -318
-236 -682 -384 -1068 -434 -226 -29 -559 -16 -772 31 -348 77 -668 230 -950
454 -169 135 -359 346 -484 539 -36 56 -62 89 -65 80z" />
  </g>
</svg>